<svg width="1146" height="1095" viewBox="0 0 1146 1095" fill="none" xmlns="http://www.w3.org/2000/svg">
<path d="M540.378 136.069C691.692 132.477 768.801 270.596 788.442 340.105C1088.3 323.742 1132.89 581.722 1117.71 712.757C1103.85 792.909 1045.42 903.823 817.655 946.725C598.51 988.004 268.711 918.456 117.034 837.973C-100.215 676.066 123.636 473.302 247.751 440.377C261.615 236.341 351.235 140.559 540.378 136.069Z" fill="white" stroke="black" stroke-width="50"/>
<path d="M653.336 631.598L835.672 519.222L652.024 409.034L468.813 521.409L653.336 631.598Z" fill="black"/>
<path d="M836.547 734.354L835.672 519.223L653.336 631.598L654.648 846.729L836.547 734.354Z" fill="black"/>
<path d="M468.813 521.409L653.336 631.598L654.648 846.728L470.563 736.102L468.813 521.409Z" fill="black"/>
<path d="M543.746 565.844L726.082 453.469L542.434 343.28L359.224 455.655L543.746 565.844Z" fill="black"/>
<path d="M726.957 668.599L726.082 453.469L543.746 565.844L545.058 780.974L726.957 668.599Z" fill="black"/>
<path d="M359.224 455.655L543.746 565.844L545.058 780.975L360.973 670.348L359.224 455.655Z" fill="black"/>
<path d="M801.635 712.97L800.944 542.917L656.813 631.746L657.85 801.799L801.635 712.97Z" fill="#B1635E"/>
<path d="M539.297 386.689L801.29 543.263L656.814 632.091L394.13 475.518L539.297 386.689Z" fill="#69140E"/>
<path d="M394.821 643.843L394.13 475.518L656.814 632.091L657.851 801.799L394.821 643.843Z" fill="#BA241A"/>
<ellipse cx="502.657" cy="806.819" rx="181.917" ry="84.8363" fill="white"/>
<path d="M336.648 759.069C402.389 712.86 564.395 660.413 686.489 820.291" stroke="black" stroke-width="50" stroke-linecap="round" stroke-linejoin="round"/>
</svg>
